<svg width="764" height="435" viewBox="0 0 764 435" fill="none" xmlns="http://www.w3.org/2000/svg">
<path d="M242.595 20.0156H186.697V145.107H271.366V0H290.849V145.107H415.474L436.075 2.96484L436.241 2.98926V0H492.537V4.21582L514.997 145.107H588.656V9.76758H588.759V0H688.852L690.245 0.00195312L647.461 145.107H764V159.758H648.257L704.296 434.385H684.747L628.924 159.758H608.138L608.136 434.616H588.656V159.758H517.333L561.112 434.385H541.034L497.158 159.758H433.495L393.624 434.385H373.546L413.35 159.758H290.849V413.923H347.034V433.938H271.173V413.923H271.366V159.758H186.697V413.923H242.595V433.938H166.733V159.758H118.769V433.733H98.8047V159.758H0V145.107H98.8047V20.0225H30.6152V0H242.595V20.0156ZM118.769 145.107H166.733V20.0225H118.769V145.107ZM435.622 145.107H494.817L474.832 20.0156H453.782L435.622 145.107ZM608.138 145.107H626.642L663.476 20.0156H608.139L608.138 145.107Z" fill="#C6D0F8"/>
<mask id="mask0_46_475" style="mask-type:alpha" maskUnits="userSpaceOnUse" x="0" y="0" width="764" height="435">
<path d="M242.595 20.0156H186.697V145.107H271.366V0H290.849V145.107H415.474L436.075 2.96484L436.241 2.98926V0H492.537V4.21582L514.997 145.107H588.656V9.76758H588.759V0H688.852L690.245 0.00195312L647.461 145.107H764V159.758H648.257L704.296 434.385H684.747L628.924 159.758H608.138L608.136 434.616H588.656V159.758H517.333L561.112 434.385H541.034L497.158 159.758H433.495L393.624 434.385H373.546L413.35 159.758H290.849V413.923H347.034V433.938H271.173V413.923H271.366V159.758H186.697V413.923H242.595V433.938H166.733V159.758H118.769V433.733H98.8047V159.758H0V145.107H98.8047V20.0225H30.6152V0H242.595V20.0156ZM118.769 145.107H166.733V20.0225H118.769V145.107ZM435.622 145.107H494.817L474.832 20.0156H453.782L435.622 145.107ZM608.138 145.107H626.642L663.476 20.0156H608.139L608.138 145.107Z" fill="#D9645A"/>
</mask>
<g mask="url(#mask0_46_475)">
<rect y="145" width="98.8" height="15" fill="#DAB95C"/>
<path d="M119 145H271.35V160H119V145Z" fill="#DAB95C"/>
<path d="M290.851 160H497.199L494.797 145H290.851V160Z" fill="#DAB95C"/>
<path d="M626.621 145H515L517.363 159.945H628.949L626.621 145Z" fill="#DAB95C"/>
<path d="M647.5 145H764V160H648.316L646.5 152.5L647.5 145Z" fill="#DAB95C"/>
</g>
</svg>
