<svg width="1920" height="1080" viewBox="0 0 1920 1080" fill="none" xmlns="http://www.w3.org/2000/svg">
<g clip-path="url(#clip0_54_17)">
<rect width="1920" height="1080" fill="#C6D0F8"/>
<path d="M772.584 207.046H654.115L673.132 271.611L655.182 334.032H772.552V348.983H656.239L666.996 406.089L656.207 460.494L772.552 462.095V477.036H655.182L673.314 540H653.037L633.294 477.036H615.685V540H595.409V477.036H520.716L511.111 540H490.834L500.439 477.036H440.687L450.292 540H430.015L420.41 477.036H294.492V540H274.215V477.036H188.851V540H168.574V477.036H119.494V540H100.284V477.036H0V462.095H98.7047L100.306 460.494V348.972H0V334.032H98.7047L99.2383 207.036H0V192.095H99.2383L100.306 78.9723H0V64.0316H98.7047L100.359 60.3498L100.306 0H119.515L119.462 60.3498L121.116 64.0316H168.595V0.0106719H188.872V64.0423H274.237V0.0106719H294.513V64.0423H420.432L430.026 0.0106719H450.302L440.698 64.0423H500.45L490.856 0.0106719H511.132L520.737 64.0423H595.43V0.0106719H615.707L616.24 64.0423H633.849L653.048 0.0106719H673.324L655.193 64.0316H772.563V78.983H656.249L666.953 133.901L655.182 192.106H772.584V207.046ZM168.595 78.983H119.515V192.106H168.595V78.983ZM274.237 78.983H188.872V192.106H274.237V78.983ZM418.297 78.983H294.513L293.446 192.106H417.23L409.664 137.145L418.297 78.983ZM502.595 192.116L511.815 134.872L503.182 79.9968L438.67 79.1111L429.983 137.209L437.485 192.127H502.584L502.595 192.116ZM595.43 78.983H523.939L532.252 133.954L522.872 192.106H594.363L595.43 78.983ZM614.629 192.106H634.372L647.37 134.872L635.439 78.983H615.696L614.629 192.106ZM168.595 207.046H119.515V334.042H168.595V207.046ZM188.872 207.046V334.042H274.237V207.046H188.872ZM420.421 334.042L429.492 270.502L420.24 208.818L418.809 207.046H293.425L294.492 334.042H420.41H420.421ZM499.393 207.046H440.708L449.747 270.512L440.708 334.042H500.46L489.906 268.292L499.393 207.046ZM594.363 207.046H519.67L510.289 268.421L520.737 334.042H595.43L594.363 207.046ZM633.838 334.042L652.578 270.566L632.237 207.046H614.629L616.23 334.042H633.838ZM168.595 348.983H119.515V462.106H168.595V348.983ZM274.237 348.983H188.872V462.106H274.237V348.983ZM418.297 348.983H294.513V462.106H418.297L409.877 405.128L418.297 348.983ZM438.617 462.052L503.192 461.113L512.072 405.128L502.659 349.442L438.67 349.1L430.431 405.192L438.606 462.052H438.617ZM595.43 348.983H523.939L532.508 406.025L523.939 462.106H595.43V348.983ZM615.696 462.106H635.439L647.594 405.117L635.439 348.983H615.696V462.106Z" fill="#333333"/>
<path d="M772.584 747.046H654.115L673.132 811.611L655.182 874.032H772.552V888.983H656.239L666.996 946.089L656.207 1000.49L772.552 1002.09V1017.04H655.182L673.314 1080H653.037L633.294 1017.04H615.685V1080H595.409V1017.04H520.716L511.111 1080H490.834L500.439 1017.04H440.687L450.292 1080H430.015L420.41 1017.04H294.492V1080H274.215V1017.04H188.851V1080H168.574V1017.04H119.494V1080H100.284V1017.04H0V1002.09H98.7047L100.306 1000.49V888.972H0V874.032H98.7047L99.2383 747.036H0V732.095H99.2383L100.306 618.972H0V604.032H98.7047L100.359 600.35L100.306 540H119.515L119.462 600.35L121.116 604.032H168.595V540.011H188.872V604.042H274.237V540.011H294.513V604.042H420.432L430.026 540.011H450.302L440.698 604.042H500.45L490.856 540.011H511.132L520.737 604.042H595.43V540.011H615.707L616.24 604.042H633.849L653.048 540.011H673.324L655.193 604.032H772.563V618.983H656.249L666.953 673.901L655.182 732.106H772.584V747.046ZM168.595 618.983H119.515V732.106H168.595V618.983ZM274.237 618.983H188.872V732.106H274.237V618.983ZM418.297 618.983H294.513L293.446 732.106H417.23L409.664 677.145L418.297 618.983ZM502.595 732.116L511.815 674.872L503.182 619.997L438.67 619.111L429.983 677.209L437.485 732.127H502.584L502.595 732.116ZM595.43 618.983H523.939L532.252 673.954L522.872 732.106H594.363L595.43 618.983ZM614.629 732.106H634.372L647.37 674.872L635.439 618.983H615.696L614.629 732.106ZM168.595 747.046H119.515V874.042H168.595V747.046ZM188.872 747.046V874.042H274.237V747.046H188.872ZM420.421 874.042L429.492 810.502L420.24 748.818L418.809 747.046H293.425L294.492 874.042H420.41H420.421ZM499.393 747.046H440.708L449.747 810.512L440.708 874.042H500.46L489.906 808.292L499.393 747.046ZM594.363 747.046H519.67L510.289 808.421L520.737 874.042H595.43L594.363 747.046ZM633.838 874.042L652.578 810.566L632.238 747.046H614.629L616.23 874.042H633.838ZM168.595 888.983H119.515V1002.11H168.595V888.983ZM274.237 888.983H188.872V1002.11H274.237V888.983ZM418.297 888.983H294.513V1002.11H418.297L409.877 945.128L418.297 888.983ZM438.617 1002.05L503.192 1001.11L512.072 945.128L502.659 889.442L438.67 889.1L430.431 945.192L438.606 1002.05H438.617ZM595.43 888.983H523.939L532.508 946.025L523.939 1002.11H595.43V888.983ZM615.696 1002.11H635.439L647.594 945.117L635.439 888.983H615.696V1002.11Z" fill="#333333"/>
<path d="M1445.98 207.046H1327.51L1346.53 271.611L1328.58 334.032H1445.95V348.983H1329.64L1340.4 406.089L1329.61 460.494L1445.95 462.095V477.036H1328.58L1346.71 540H1326.44L1306.69 477.036H1289.08V540H1268.81V477.036H1194.12L1184.51 540H1164.23L1173.84 477.036H1114.09L1123.69 540H1103.41L1093.81 477.036H967.892V540H947.615V477.036H862.25V540H841.973V477.036H792.893V540H773.684V477.036H673.399V462.095H772.104L773.705 460.494V348.972H673.399V334.032H772.104L772.638 207.036H673.399V192.095H772.638L773.705 78.9723H673.399V64.0316H772.104L773.758 60.3498L773.705 0H792.914L792.861 60.3498L794.515 64.0316H841.995V0.0106719H862.271V64.0423H947.636V0.0106719H967.913V64.0423H1093.83L1103.43 0.0106719H1123.7L1114.1 64.0423H1173.85L1164.26 0.0106719H1184.53L1194.14 64.0423H1268.83V0.0106719H1289.11L1289.64 64.0423H1307.25L1326.45 0.0106719H1346.72L1328.59 64.0316H1445.96V78.983H1329.65L1340.35 133.901L1328.58 192.106H1445.98V207.046ZM841.995 78.983H792.914V192.106H841.995V78.983ZM947.636 78.983H862.271V192.106H947.636V78.983ZM1091.7 78.983H967.913L966.846 192.106H1090.63L1083.06 137.145L1091.7 78.983ZM1175.99 192.116L1185.21 134.872L1176.58 79.9968L1112.07 79.1111L1103.38 137.209L1110.88 192.127H1175.98L1175.99 192.116ZM1268.83 78.983H1197.34L1205.65 133.954L1196.27 192.106H1267.76L1268.83 78.983ZM1288.03 192.106H1307.77L1320.77 134.872L1308.84 78.983H1289.1L1288.03 192.106ZM841.995 207.046H792.914V334.042H841.995V207.046ZM862.271 207.046V334.042H947.636V207.046H862.271ZM1093.82 334.042L1102.89 270.502L1093.64 208.818L1092.21 207.046H966.824L967.892 334.042H1093.81H1093.82ZM1172.79 207.046H1114.11L1123.15 270.512L1114.11 334.042H1173.86L1163.31 268.292L1172.79 207.046ZM1267.76 207.046H1193.07L1183.69 268.421L1194.14 334.042H1268.83L1267.76 207.046ZM1307.24 334.042L1325.98 270.566L1305.64 207.046H1288.03L1289.63 334.042H1307.24ZM841.995 348.983H792.914V462.106H841.995V348.983ZM947.636 348.983H862.271V462.106H947.636V348.983ZM1091.7 348.983H967.913V462.106H1091.7L1083.28 405.128L1091.7 348.983ZM1112.02 462.052L1176.59 461.113L1185.47 405.128L1176.06 349.442L1112.07 349.1L1103.83 405.192L1112.01 462.052H1112.02ZM1268.83 348.983H1197.34L1205.91 406.025L1197.34 462.106H1268.83V348.983ZM1289.1 462.106H1308.84L1320.99 405.117L1308.84 348.983H1289.1V462.106Z" fill="#333333"/>
<path d="M2119.38 207.046H2000.91L2019.93 271.611L2001.98 334.032H2119.35V348.983H2003.04L2013.79 406.089L2003.01 460.494L2119.35 462.095V477.036H2001.98L2020.11 540H1999.84L1980.09 477.036H1962.48V540H1942.21V477.036H1867.51L1857.91 540H1837.63L1847.24 477.036H1787.49L1797.09 540H1776.81L1767.21 477.036H1641.29V540H1621.01V477.036H1535.65V540H1515.37V477.036H1466.29V540H1447.08V477.036H1346.8V462.095H1445.5L1447.1 460.494V348.972H1346.8V334.032H1445.5L1446.04 207.036H1346.8V192.095H1446.04L1447.1 78.9723H1346.8V64.0316H1445.5L1447.16 60.3498L1447.1 0H1466.31L1466.26 60.3498L1467.91 64.0316H1515.39V0.0106719H1535.67V64.0423H1621.04V0.0106719H1641.31V64.0423H1767.23L1776.82 0.0106719H1797.1L1787.5 64.0423H1847.25L1837.65 0.0106719H1857.93L1867.54 64.0423H1942.23V0.0106719H1962.51L1963.04 64.0423H1980.65L1999.85 0.0106719H2020.12L2001.99 64.0316H2119.36V78.983H2003.05L2013.75 133.901L2001.98 192.106H2119.38V207.046ZM1515.39 78.983H1466.31V192.106H1515.39V78.983ZM1621.04 78.983H1535.67V192.106H1621.04V78.983ZM1765.1 78.983H1641.31L1640.25 192.106H1764.03L1756.46 137.145L1765.1 78.983ZM1849.39 192.116L1858.61 134.872L1849.98 79.9968L1785.47 79.1111L1776.78 137.209L1784.28 192.127H1849.38L1849.39 192.116ZM1942.23 78.983H1870.74L1879.05 133.954L1869.67 192.106H1941.16L1942.23 78.983ZM1961.43 192.106H1981.17L1994.17 134.872L1982.24 78.983H1962.49L1961.43 192.106ZM1515.39 207.046H1466.31V334.042H1515.39V207.046ZM1535.67 207.046V334.042H1621.04V207.046H1535.67ZM1767.22 334.042L1776.29 270.502L1767.04 208.818L1765.61 207.046H1640.22L1641.29 334.042H1767.21H1767.22ZM1846.19 207.046H1787.51L1796.55 270.512L1787.51 334.042H1847.26L1836.7 268.292L1846.19 207.046ZM1941.16 207.046H1866.47L1857.09 268.421L1867.54 334.042H1942.23L1941.16 207.046ZM1980.64 334.042L1999.38 270.566L1979.04 207.046H1961.43L1963.03 334.042H1980.64ZM1515.39 348.983H1466.31V462.106H1515.39V348.983ZM1621.04 348.983H1535.67V462.106H1621.04V348.983ZM1765.1 348.983H1641.31V462.106H1765.1L1756.68 405.128L1765.1 348.983ZM1785.42 462.052L1849.99 461.113L1858.87 405.128L1849.46 349.442L1785.47 349.1L1777.23 405.192L1785.4 462.052H1785.42ZM1942.23 348.983H1870.74L1879.31 406.025L1870.74 462.106H1942.23V348.983ZM1962.49 462.106H1982.24L1994.39 405.117L1982.24 348.983H1962.49V462.106Z" fill="#333333"/>
<path d="M1445.98 747.046H1327.51L1346.53 811.611L1328.58 874.032H1445.95V888.983H1329.64L1340.4 946.089L1329.61 1000.49L1445.95 1002.09V1017.04H1328.58L1346.71 1080H1326.44L1306.69 1017.04H1289.08V1080H1268.81V1017.04H1194.12L1184.51 1080H1164.23L1173.84 1017.04H1114.09L1123.69 1080H1103.41L1093.81 1017.04H967.892V1080H947.615V1017.04H862.25V1080H841.973V1017.04H792.893V1080H773.684V1017.04H673.399V1002.09H772.104L773.705 1000.49V888.972H673.399V874.032H772.104L772.638 747.036H673.399V732.095H772.638L773.705 618.972H673.399V604.032H772.104L773.758 600.35L773.705 540H792.914L792.861 600.35L794.515 604.032H841.995V540.011H862.271V604.042H947.636V540.011H967.913V604.042H1093.83L1103.43 540.011H1123.7L1114.1 604.042H1173.85L1164.26 540.011H1184.53L1194.14 604.042H1268.83V540.011H1289.11L1289.64 604.042H1307.25L1326.45 540.011H1346.72L1328.59 604.032H1445.96V618.983H1329.65L1340.35 673.901L1328.58 732.106H1445.98V747.046ZM841.995 618.983H792.914V732.106H841.995V618.983ZM947.636 618.983H862.271V732.106H947.636V618.983ZM1091.7 618.983H967.913L966.846 732.106H1090.63L1083.06 677.145L1091.7 618.983ZM1175.99 732.116L1185.21 674.872L1176.58 619.997L1112.07 619.111L1103.38 677.209L1110.88 732.127H1175.98L1175.99 732.116ZM1268.83 618.983H1197.34L1205.65 673.954L1196.27 732.106H1267.76L1268.83 618.983ZM1288.03 732.106H1307.77L1320.77 674.872L1308.84 618.983H1289.1L1288.03 732.106ZM841.995 747.046H792.914V874.042H841.995V747.046ZM862.271 747.046V874.042H947.636V747.046H862.271ZM1093.82 874.042L1102.89 810.502L1093.64 748.818L1092.21 747.046H966.824L967.892 874.042H1093.81H1093.82ZM1172.79 747.046H1114.11L1123.15 810.512L1114.11 874.042H1173.86L1163.31 808.292L1172.79 747.046ZM1267.76 747.046H1193.07L1183.69 808.421L1194.14 874.042H1268.83L1267.76 747.046ZM1307.24 874.042L1325.98 810.566L1305.64 747.046H1288.03L1289.63 874.042H1307.24ZM841.995 888.983H792.914V1002.11H841.995V888.983ZM947.636 888.983H862.271V1002.11H947.636V888.983ZM1091.7 888.983H967.913V1002.11H1091.7L1083.28 945.128L1091.7 888.983ZM1112.02 1002.05L1176.59 1001.11L1185.47 945.128L1176.06 889.442L1112.07 889.1L1103.83 945.192L1112.01 1002.05H1112.02ZM1268.83 888.983H1197.34L1205.91 946.025L1197.34 1002.11H1268.83V888.983ZM1289.1 1002.11H1308.84L1320.99 945.117L1308.84 888.983H1289.1V1002.11Z" fill="#333333"/>
<path d="M2119.38 747.046H2000.91L2019.93 811.611L2001.98 874.032H2119.35V888.983H2003.04L2013.79 946.089L2003.01 1000.49L2119.35 1002.09V1017.04H2001.98L2020.11 1080H1999.84L1980.09 1017.04H1962.48V1080H1942.21V1017.04H1867.51L1857.91 1080H1837.63L1847.24 1017.04H1787.49L1797.09 1080H1776.81L1767.21 1017.04H1641.29V1080H1621.01V1017.04H1535.65V1080H1515.37V1017.04H1466.29V1080H1447.08V1017.04H1346.8V1002.09H1445.5L1447.1 1000.49V888.972H1346.8V874.032H1445.5L1446.04 747.036H1346.8V732.095H1446.04L1447.1 618.972H1346.8V604.032H1445.5L1447.16 600.35L1447.1 540H1466.31L1466.26 600.35L1467.91 604.032H1515.39V540.011H1535.67V604.042H1621.04V540.011H1641.31V604.042H1767.23L1776.82 540.011H1797.1L1787.5 604.042H1847.25L1837.65 540.011H1857.93L1867.54 604.042H1942.23V540.011H1962.51L1963.04 604.042H1980.65L1999.85 540.011H2020.12L2001.99 604.032H2119.36V618.983H2003.05L2013.75 673.901L2001.98 732.106H2119.38V747.046ZM1515.39 618.983H1466.31V732.106H1515.39V618.983ZM1621.04 618.983H1535.67V732.106H1621.04V618.983ZM1765.1 618.983H1641.31L1640.25 732.106H1764.03L1756.46 677.145L1765.1 618.983ZM1849.39 732.116L1858.61 674.872L1849.98 619.997L1785.47 619.111L1776.78 677.209L1784.28 732.127H1849.38L1849.39 732.116ZM1942.23 618.983H1870.74L1879.05 673.954L1869.67 732.106H1941.16L1942.23 618.983ZM1961.43 732.106H1981.17L1994.17 674.872L1982.24 618.983H1962.49L1961.43 732.106ZM1515.39 747.046H1466.31V874.042H1515.39V747.046ZM1535.67 747.046V874.042H1621.04V747.046H1535.67ZM1767.22 874.042L1776.29 810.502L1767.04 748.818L1765.61 747.046H1640.22L1641.29 874.042H1767.21H1767.22ZM1846.19 747.046H1787.51L1796.55 810.512L1787.51 874.042H1847.26L1836.7 808.292L1846.19 747.046ZM1941.16 747.046H1866.47L1857.09 808.421L1867.54 874.042H1942.23L1941.16 747.046ZM1980.64 874.042L1999.38 810.566L1979.04 747.046H1961.43L1963.03 874.042H1980.64ZM1515.39 888.983H1466.31V1002.11H1515.39V888.983ZM1621.04 888.983H1535.67V1002.11H1621.04V888.983ZM1765.1 888.983H1641.31V1002.11H1765.1L1756.68 945.128L1765.1 888.983ZM1785.42 1002.05L1849.99 1001.11L1858.87 945.128L1849.46 889.442L1785.47 889.1L1777.23 945.192L1785.4 1002.05H1785.42ZM1942.23 888.983H1870.74L1879.31 946.025L1870.74 1002.11H1942.23V888.983ZM1962.49 1002.11H1982.24L1994.39 945.117L1982.24 888.983H1962.49V1002.11Z" fill="#333333"/>
</g>
<defs>
<clipPath id="clip0_54_17">
<rect width="1920" height="1080" fill="white"/>
</clipPath>
</defs>
</svg>
